<?xml version="1.0" encoding="utf-8"?>
<!-- Generator: Adobe Illustrator 15.1.0, SVG Export Plug-In . SVG Version: 6.00 Build 0)  -->
<!DOCTYPE svg PUBLIC "-//W3C//DTD SVG 1.1//EN" "http://www.w3.org/Graphics/SVG/1.1/DTD/svg11.dtd">
<svg version="1.1" id="Layer_1" xmlns="http://www.w3.org/2000/svg" xmlns:xlink="http://www.w3.org/1999/xlink" x="0px" y="0px"
	 width="68px" height="68px" viewBox="0 0 68 68" enable-background="new 0 0 68 68" xml:space="preserve">
<g>
	<g>
		<path fill="#981B1E" d="M30.809,26.458h6.018v5.645h-6.018V26.458z M30.809,35.561h6.018v4.636c0,1.706-0.355,3.052-1.064,4.04
			c-0.711,0.986-1.924,1.855-3.64,2.612l-1.313-2.462c1.069-0.498,1.805-0.992,2.206-1.486c0.401-0.495,0.626-1.078,0.671-1.749
			h-2.877V35.561z"/>
	</g>
	<path fill="#2364AF" d="M28.959,9.363c-11.437,2.28-20.058,12.37-20.058,24.478c0,12.093,8.602,22.176,20.021,24.471l0.043,0.036
		V58.32v-6.018v-0.073c-1.836,0-3.029-0.113-3.582-0.342c-0.552-0.232-0.964-0.567-1.236-1.007
		c-0.271-0.443-0.407-1.225-0.407-2.348c0-0.781-0.06-2.581-0.179-5.404c-0.102-1.85-0.324-3.329-0.662-4.435
		c-0.342-1.104-0.83-2.043-1.466-2.816c-0.638-0.773-1.458-1.448-2.46-2.026c1.138-0.731,1.984-1.436,2.536-2.116
		c0.551-0.679,1.005-1.542,1.364-2.586c0.357-1.045,0.577-2.41,0.662-4.092c0.152-2.991,0.229-5.021,0.229-6.092
		c0-1.053,0.128-1.797,0.383-2.23c0.255-0.434,0.65-0.755,1.186-0.969c0.534-0.212,1.746-0.319,3.632-0.319v-0.067V9.361V9.355
		L28.959,9.363z"/>
	<path fill="#2F9967" d="M38.842,9.363c11.438,2.28,20.06,12.37,20.06,24.478c0,12.093-8.603,22.176-20.02,24.471l-0.046,0.036
		V58.32v-6.018v-0.073c1.837,0,3.03-0.113,3.583-0.342c0.552-0.232,0.964-0.567,1.235-1.007c0.272-0.443,0.409-1.225,0.409-2.348
		c0-0.781,0.059-2.581,0.177-5.404c0.104-1.85,0.324-3.329,0.663-4.435c0.342-1.104,0.83-2.043,1.468-2.816
		c0.635-0.773,1.455-1.448,2.459-2.026c-1.138-0.731-1.983-1.436-2.535-2.116c-0.553-0.679-1.008-1.542-1.364-2.586
		c-0.357-1.045-0.577-2.41-0.665-4.092c-0.153-2.991-0.229-5.021-0.229-6.092c0-1.053-0.125-1.797-0.382-2.23
		c-0.253-0.434-0.649-0.755-1.184-0.969c-0.537-0.212-1.749-0.319-3.635-0.319v-0.067V9.361V9.355L38.842,9.363z"/>
</g>
</svg>
